<?xml version="1.0" standalone="no"?>
<!DOCTYPE svg PUBLIC "-//W3C//DTD SVG 20010904//EN"
 "http://www.w3.org/TR/2001/REC-SVG-20010904/DTD/svg10.dtd">
<svg version="1.0" xmlns="http://www.w3.org/2000/svg"
 width="1920.000000pt" height="1920.000000pt" viewBox="0 0 1920.000000 1920.000000"
 preserveAspectRatio="xMidYMid meet">

<g transform="translate(0.000000,1920.000000) scale(0.100000,-0.100000)"
fill="#000000" stroke="none">
<path d="M6470 14675 c-250 -39 -469 -152 -651 -334 -185 -185 -296 -403 -335
-661 -21 -143 -21 -8017 0 -8160 39 -258 150 -476 335 -661 144 -144 290 -233
483 -294 183 -58 -27 -55 3724 -55 3917 0 3516 -10 3615 89 92 93 90 79 87
668 -3 491 -3 499 -25 539 -67 126 -190 189 -315 163 -96 -20 -162 -71 -211
-163 -21 -40 -22 -53 -25 -378 l-3 -338 -3278 0 c-2270 0 -3296 3 -3337 11
-100 18 -230 87 -308 165 -110 111 -176 270 -176 423 1 255 174 488 425 572
33 12 648 15 3530 19 3333 5 3492 6 3536 23 67 26 123 79 156 145 l28 57 3
3965 c2 4498 12 4031 -87 4131 -99 99 303 89 -3625 88 -2831 -1 -3476 -3
-3546 -14z m1300 -2065 c0 -825 -2 -1500 -4 -1500 -2 0 -79 108 -171 240 -155
222 -172 241 -218 265 -60 30 -107 31 -162 6 -54 -25 -70 -44 -235 -281 -78
-113 -149 -212 -156 -220 -12 -12 -14 213 -14 1488 l0 1502 480 0 480 0 0
-1500z m5380 -2125 l0 -3625 -3342 -2 -3343 -3 -100 -27 c-103 -27 -216 -72
-279 -109 l-36 -21 0 3439 c0 3721 -3 3498 53 3623 34 77 107 170 169 218 53
40 128 82 147 82 8 0 11 -578 11 -1816 0 -1317 3 -1821 11 -1837 53 -103 174
-141 270 -85 37 22 75 69 229 290 267 381 340 483 350 486 4 2 28 -25 52 -60
24 -35 136 -193 247 -353 214 -305 248 -347 296 -372 38 -20 122 -20 161 0 43
22 91 80 103 124 8 26 11 618 11 1856 l0 1817 2495 0 2495 0 0 -3625z"/>
</g>
</svg>
